<mxfile host="app.diagrams.net" modified="2024-01-11T18:18:15.080Z" agent="Mozilla/5.0 (Macintosh; Intel Mac OS X 10_15_7) AppleWebKit/605.1.15 (KHTML, like Gecko) Version/17.1 Safari/605.1.15" etag="Vr7sBUATkWwB9hyMHI57" version="22.1.18" type="github">
  <diagram name="Page-1" id="JRb-il1e-lox9SDUDJLI">
    <mxGraphModel dx="1283" dy="2034" grid="1" gridSize="10" guides="1" tooltips="1" connect="1" arrows="1" fold="1" page="1" pageScale="1" pageWidth="827" pageHeight="1169" math="0" shadow="0">
      <root>
        <mxCell id="0" />
        <mxCell id="1" parent="0" />
        <mxCell id="pgb1ue_InCqhz1iu2C9q-1" value="" style="shape=image;verticalLabelPosition=bottom;labelBackgroundColor=default;verticalAlign=top;aspect=fixed;imageAspect=0;image=https://cdn.discordapp.com/attachments/1137409073801867264/1194949467854614538/IMG_3457.jpg;" vertex="1" parent="1">
          <mxGeometry x="397" y="-30" width="843.2" height="527" as="geometry" />
        </mxCell>
        <mxCell id="pgb1ue_InCqhz1iu2C9q-5" value="เข้าระบบของ Traffy" style="rounded=1;whiteSpace=wrap;html=1;" vertex="1" parent="1">
          <mxGeometry x="535" y="300" width="120" height="60" as="geometry" />
        </mxCell>
        <mxCell id="pgb1ue_InCqhz1iu2C9q-7" value="บน Platform Traffy" style="rounded=1;whiteSpace=wrap;html=1;" vertex="1" parent="1">
          <mxGeometry x="540" y="230" width="110" height="30" as="geometry" />
        </mxCell>
        <mxCell id="pgb1ue_InCqhz1iu2C9q-8" value="" style="endArrow=classic;html=1;rounded=0;exitX=0.5;exitY=1;exitDx=0;exitDy=0;entryX=0.5;entryY=0;entryDx=0;entryDy=0;strokeColor=#FFFFFF;" edge="1" parent="1" source="pgb1ue_InCqhz1iu2C9q-7" target="pgb1ue_InCqhz1iu2C9q-5">
          <mxGeometry width="50" height="50" relative="1" as="geometry">
            <mxPoint x="650" y="290" as="sourcePoint" />
            <mxPoint x="700" y="240" as="targetPoint" />
          </mxGeometry>
        </mxCell>
        <mxCell id="pgb1ue_InCqhz1iu2C9q-10" value="Cleaning Data" style="rounded=1;whiteSpace=wrap;html=1;fillColor=#f8cecc;strokeColor=#b85450;" vertex="1" parent="1">
          <mxGeometry x="790" y="330" width="120" height="60" as="geometry" />
        </mxCell>
        <mxCell id="pgb1ue_InCqhz1iu2C9q-11" value="&lt;font style=&quot;font-size: 6px;&quot;&gt;สกัดคำหยาบ / ข้อความที่ไม่ใช่ประโยค&lt;/font&gt;" style="text;html=1;strokeColor=none;fillColor=none;align=center;verticalAlign=middle;whiteSpace=wrap;rounded=0;" vertex="1" parent="1">
          <mxGeometry x="730" y="360" width="240" height="30" as="geometry" />
        </mxCell>
        <mxCell id="pgb1ue_InCqhz1iu2C9q-15" value="ข้อเสนอใหม่" style="rounded=1;whiteSpace=wrap;html=1;fillColor=#f8cecc;strokeColor=#b85450;" vertex="1" parent="1">
          <mxGeometry x="800" y="290" width="90" height="30" as="geometry" />
        </mxCell>
        <mxCell id="pgb1ue_InCqhz1iu2C9q-16" value="" style="endArrow=classic;html=1;rounded=0;exitX=0.5;exitY=1;exitDx=0;exitDy=0;entryX=0.467;entryY=0.026;entryDx=0;entryDy=0;entryPerimeter=0;strokeColor=#D5E8D4;" edge="1" parent="1" source="pgb1ue_InCqhz1iu2C9q-15" target="pgb1ue_InCqhz1iu2C9q-10">
          <mxGeometry width="50" height="50" relative="1" as="geometry">
            <mxPoint x="880" y="360" as="sourcePoint" />
            <mxPoint x="930" y="310" as="targetPoint" />
          </mxGeometry>
        </mxCell>
        <mxCell id="pgb1ue_InCqhz1iu2C9q-19" value="&lt;font style=&quot;font-size: 8px;&quot;&gt;Label Tag&amp;nbsp;&lt;br&gt;216 นโยบายชัชชาติ&lt;/font&gt;" style="rounded=1;whiteSpace=wrap;html=1;fillColor=#9E8382;strokeColor=#b85450;" vertex="1" parent="1">
          <mxGeometry x="900" y="280" width="90" height="30" as="geometry" />
        </mxCell>
        <mxCell id="pgb1ue_InCqhz1iu2C9q-20" value="&lt;font color=&quot;#d5e8d4&quot;&gt;Database&lt;/font&gt;" style="shape=cylinder3;whiteSpace=wrap;html=1;boundedLbl=1;backgroundOutline=1;size=15;fillColor=#241E1D;strokeColor=#b85450;" vertex="1" parent="1">
          <mxGeometry x="1050" y="280" width="60" height="80" as="geometry" />
        </mxCell>
        <mxCell id="pgb1ue_InCqhz1iu2C9q-21" value="" style="endArrow=classic;html=1;rounded=0;entryX=0;entryY=0.5;entryDx=0;entryDy=0;entryPerimeter=0;edgeStyle=orthogonalEdgeStyle;exitX=1;exitY=0.5;exitDx=0;exitDy=0;strokeColor=#FFFFFF;" edge="1" parent="1" source="pgb1ue_InCqhz1iu2C9q-19" target="pgb1ue_InCqhz1iu2C9q-20">
          <mxGeometry width="50" height="50" relative="1" as="geometry">
            <mxPoint x="1000" y="320" as="sourcePoint" />
            <mxPoint x="1040" y="270" as="targetPoint" />
            <Array as="points">
              <mxPoint x="1010" y="295" />
              <mxPoint x="1010" y="320" />
            </Array>
          </mxGeometry>
        </mxCell>
      </root>
    </mxGraphModel>
  </diagram>
</mxfile>
